<svg id="svg" version="1.1" xmlns="http://www.w3.org/2000/svg" xmlns:xlink="http://www.w3.org/1999/xlink" width="400" height="400" viewBox="0, 0, 400,400"><g id="svgg"><path id="path0" d="M148.000 108.471 C 146.570 108.674,142.700 109.290,139.400 109.840 C 133.376 110.845,132.439 111.007,125.800 112.202 C 117.459 113.704,110.512 114.396,103.749 114.398 C 98.475 114.399,96.794 114.525,96.448 114.942 C 95.568 116.002,96.034 285.357,96.917 285.527 C 97.311 285.603,102.891 283.593,109.317 281.061 C 141.073 268.547,152.876 265.454,165.100 266.443 C 174.360 267.192,186.939 272.912,192.162 278.748 C 194.094 280.908,194.001 284.886,193.992 201.100 L 193.985 122.600 191.292 120.354 C 178.732 109.877,164.881 106.075,148.000 108.471 M232.800 108.413 C 223.078 109.563,214.538 113.896,205.700 122.161 C 205.207 122.622,204.888 279.021,205.378 279.512 C 205.483 279.616,206.387 278.922,207.386 277.970 C 217.570 268.264,232.978 263.917,247.200 266.738 C 251.911 267.672,256.534 268.844,261.200 270.286 C 263.730 271.068,266.610 271.935,267.600 272.213 C 268.590 272.491,272.010 273.649,275.200 274.786 C 282.791 277.493,282.227 277.283,293.960 281.761 C 299.549 283.894,304.364 285.546,304.661 285.432 C 305.113 285.258,305.185 271.270,305.101 199.912 L 305.000 114.600 297.000 114.344 C 292.600 114.204,287.560 113.882,285.800 113.629 C 284.040 113.375,281.236 113.007,279.569 112.809 C 277.902 112.612,272.142 111.724,266.769 110.835 C 250.177 108.090,241.038 107.438,232.800 108.413 M316.900 114.716 L 316.000 114.856 316.000 202.054 C 316.000 261.397,315.868 289.500,315.586 290.026 C 315.072 290.986,87.038 291.278,86.080 290.320 C 85.710 289.950,85.600 269.858,85.600 202.320 L 85.600 114.800 83.459 114.800 C 81.142 114.800,79.315 115.726,77.939 117.600 C 77.303 118.467,76.828 231.426,77.194 294.869 C 77.197 295.457,77.687 296.517,78.281 297.224 C 80.580 299.956,77.490 299.779,126.800 300.000 L 171.400 300.200 171.604 302.224 C 171.716 303.336,172.125 304.731,172.513 305.324 L 173.218 306.400 200.509 306.394 C 215.519 306.391,228.018 306.249,228.284 306.080 C 229.043 305.598,230.081 302.778,229.846 301.840 C 229.373 299.957,227.686 300.030,274.816 299.912 C 315.442 299.810,319.507 299.741,320.608 299.137 C 322.782 297.945,323.874 296.527,324.146 294.544 C 324.721 290.347,324.430 119.646,323.845 118.247 C 322.913 116.016,319.546 114.304,316.900 114.716 " stroke="none" fill="#b39b5c" fill-rule="evenodd"></path><path id="path1" d="M181.400 31.626 C 180.080 31.810,178.280 32.068,177.400 32.199 C 176.520 32.330,173.190 32.795,170.000 33.233 C 163.273 34.154,156.152 35.459,155.000 35.981 C 154.560 36.181,151.140 37.094,147.400 38.011 C 143.660 38.927,140.510 39.814,140.400 39.981 C 140.290 40.148,139.480 40.416,138.600 40.576 C 135.970 41.055,128.400 43.611,128.400 44.020 C 128.400 44.229,128.165 44.400,127.877 44.400 C 127.150 44.400,119.902 47.315,117.000 48.775 C 115.680 49.439,114.330 49.997,114.000 50.015 C 113.670 50.033,112.661 50.442,111.758 50.924 C 110.855 51.406,108.425 52.678,106.358 53.750 C 104.291 54.823,102.510 55.832,102.400 55.994 C 102.290 56.155,100.760 57.057,99.000 57.998 C 97.240 58.938,95.350 60.023,94.800 60.407 C 94.250 60.791,93.043 61.532,92.117 62.053 C 91.191 62.574,89.931 63.409,89.317 63.908 C 88.208 64.810,86.955 65.695,81.200 69.647 C 79.550 70.780,78.059 71.947,77.887 72.240 C 77.715 72.534,76.590 73.427,75.387 74.226 C 74.184 75.024,73.200 75.832,73.200 76.020 C 73.200 76.208,72.345 76.945,71.300 77.659 C 68.838 79.339,53.398 94.734,53.042 95.864 C 52.892 96.340,52.325 97.019,51.783 97.374 C 51.241 97.730,50.370 98.691,49.849 99.510 C 49.327 100.330,48.382 101.571,47.750 102.269 C 46.442 103.712,46.629 103.474,43.248 107.984 C 41.852 109.845,40.605 111.645,40.475 111.984 C 40.346 112.323,39.945 112.918,39.584 113.307 C 39.223 113.695,38.683 114.505,38.383 115.107 C 38.083 115.708,37.062 117.398,36.113 118.863 C 35.164 120.328,34.008 122.384,33.544 123.433 C 33.080 124.482,32.359 125.707,31.941 126.155 C 31.052 127.110,25.913 137.473,25.183 139.784 C 24.908 140.656,24.277 142.186,23.782 143.184 C 23.287 144.183,22.315 146.800,21.624 149.000 C 20.932 151.200,20.113 153.548,19.804 154.217 C 19.494 154.887,18.614 157.969,17.847 161.068 C 17.080 164.166,16.181 167.350,15.849 168.143 C 11.308 179.012,11.308 228.588,15.849 239.457 C 16.181 240.250,17.080 243.434,17.847 246.532 C 18.614 249.631,19.494 252.713,19.804 253.383 C 20.113 254.052,20.932 256.400,21.624 258.600 C 22.315 260.800,23.287 263.417,23.782 264.416 C 24.277 265.414,24.913 266.944,25.195 267.816 C 26.007 270.324,30.762 279.893,31.822 281.153 C 32.351 281.782,33.155 283.161,33.608 284.218 C 34.061 285.275,35.198 287.323,36.135 288.770 C 37.072 290.216,38.070 291.868,38.354 292.439 C 38.638 293.011,39.304 293.984,39.835 294.602 C 40.366 295.219,40.800 295.865,40.800 296.038 C 40.800 296.480,45.660 302.932,46.284 303.320 C 46.568 303.496,46.800 303.891,46.800 304.197 C 46.800 304.504,47.136 304.990,47.546 305.277 C 47.956 305.565,48.874 306.663,49.586 307.717 C 50.297 308.771,51.304 309.912,51.824 310.253 C 52.344 310.593,52.881 311.225,53.018 311.657 C 53.155 312.088,56.357 315.563,60.134 319.378 C 66.655 325.967,67.987 327.198,73.476 331.711 C 74.754 332.763,76.861 334.516,78.157 335.607 C 79.453 336.698,81.295 338.049,82.250 338.608 C 83.205 339.168,84.474 340.078,85.070 340.630 C 85.665 341.181,87.018 342.104,88.076 342.680 C 89.134 343.256,90.000 343.850,90.000 344.001 C 90.000 344.341,95.422 347.600,95.988 347.600 C 96.214 347.600,96.400 347.746,96.400 347.925 C 96.400 348.104,97.930 349.048,99.800 350.023 C 101.670 350.998,103.200 351.932,103.200 352.098 C 103.200 352.264,103.350 352.400,103.533 352.400 C 103.716 352.400,105.889 353.486,108.361 354.814 C 110.834 356.142,113.676 357.507,114.676 357.846 C 115.676 358.186,118.138 359.238,120.147 360.185 C 122.156 361.132,124.938 362.291,126.328 362.762 C 127.718 363.233,129.248 363.868,129.728 364.173 C 130.857 364.891,136.301 366.585,139.500 367.213 C 140.875 367.483,142.000 367.845,142.000 368.018 C 142.000 368.355,154.972 371.600,156.321 371.600 C 156.768 371.600,157.193 371.768,157.267 371.973 C 157.432 372.436,170.146 374.549,178.200 375.452 C 196.533 377.506,240.199 375.243,244.172 372.033 C 244.407 371.843,245.680 371.470,247.000 371.206 C 250.718 370.462,258.529 368.389,258.988 368.025 C 259.215 367.845,260.660 367.396,262.200 367.026 C 265.771 366.170,269.914 364.849,271.200 364.157 C 271.750 363.861,273.910 362.963,276.000 362.162 C 278.090 361.361,280.340 360.381,281.000 359.985 C 281.660 359.588,283.370 358.818,284.800 358.273 C 287.920 357.085,295.969 353.006,298.193 351.488 C 299.069 350.890,299.910 350.400,300.061 350.400 C 300.411 350.400,308.271 345.744,309.600 344.748 C 310.150 344.337,311.590 343.346,312.800 342.547 C 314.010 341.747,315.835 340.397,316.856 339.547 C 317.876 338.696,318.883 338.000,319.093 338.000 C 319.304 338.000,320.491 337.145,321.733 336.100 C 324.883 333.449,325.807 332.689,329.000 330.127 C 332.652 327.196,347.200 312.550,347.200 311.804 C 347.200 311.487,347.540 311.046,347.955 310.824 C 348.371 310.601,349.388 309.470,350.215 308.310 C 351.043 307.149,351.963 306.056,352.260 305.880 C 352.557 305.704,353.072 305.034,353.404 304.392 C 353.737 303.749,354.327 302.903,354.717 302.512 C 355.908 301.316,358.217 298.277,359.030 296.836 C 359.454 296.085,360.199 295.030,360.687 294.491 C 361.175 293.952,361.692 293.126,361.836 292.655 C 361.979 292.185,362.706 290.943,363.451 289.896 C 364.196 288.848,365.468 286.688,366.278 285.096 C 367.088 283.503,367.989 281.960,368.280 281.667 C 368.571 281.374,369.536 279.664,370.424 277.867 C 371.311 276.070,372.202 274.330,372.404 274.000 C 372.605 273.670,373.325 272.050,374.004 270.400 C 374.683 268.750,375.582 266.677,376.001 265.794 C 376.419 264.911,377.458 262.112,378.309 259.573 C 379.159 257.035,379.953 254.787,380.072 254.579 C 380.460 253.901,381.914 248.679,382.628 245.400 C 383.011 243.640,383.584 241.580,383.900 240.822 C 386.412 234.810,389.281 203.314,387.200 204.600 C 386.972 204.741,386.800 204.396,386.800 203.800 C 386.800 203.127,386.961 202.852,387.249 203.031 C 388.617 203.876,386.981 178.471,385.195 171.118 C 384.534 168.398,384.495 168.262,384.033 167.068 C 383.792 166.445,382.965 163.409,382.194 160.321 C 381.423 157.233,380.543 154.142,380.237 153.453 C 379.931 152.764,378.933 149.957,378.019 147.215 C 377.105 144.473,376.208 142.043,376.027 141.815 C 375.845 141.587,375.018 139.690,374.189 137.600 C 373.359 135.510,372.472 133.530,372.217 133.200 C 371.962 132.870,371.083 131.211,370.262 129.513 C 369.441 127.816,368.550 126.196,368.282 125.913 C 368.014 125.631,367.194 124.230,366.461 122.800 C 365.728 121.370,364.538 119.300,363.816 118.200 C 363.094 117.100,362.023 115.345,361.435 114.300 C 360.847 113.255,360.194 112.400,359.983 112.400 C 359.772 112.400,359.600 112.141,359.600 111.824 C 359.600 111.281,356.032 106.267,355.029 105.400 C 354.775 105.180,354.155 104.326,353.652 103.502 C 353.149 102.679,352.514 101.869,352.241 101.702 C 351.968 101.536,351.162 100.542,350.449 99.494 C 349.736 98.445,348.714 97.300,348.177 96.948 C 347.639 96.596,347.200 96.069,347.200 95.776 C 347.200 95.094,336.853 84.407,332.351 80.439 C 326.457 75.246,324.763 73.813,324.070 73.434 C 323.701 73.232,322.526 72.287,321.457 71.334 C 320.388 70.380,319.350 69.600,319.151 69.600 C 318.952 69.600,317.846 68.832,316.694 67.894 C 315.542 66.956,313.880 65.745,313.000 65.202 C 312.120 64.659,311.040 63.904,310.600 63.524 C 309.606 62.665,300.436 57.200,299.988 57.200 C 299.808 57.200,299.153 56.781,298.531 56.269 C 297.909 55.757,295.960 54.646,294.200 53.800 C 292.440 52.954,290.725 52.031,290.390 51.750 C 290.054 51.468,288.074 50.580,285.990 49.776 C 283.905 48.972,282.110 48.172,282.000 47.998 C 281.890 47.825,280.090 47.022,278.000 46.214 C 275.910 45.405,273.553 44.414,272.762 44.011 C 271.105 43.166,263.892 40.800,262.973 40.800 C 262.634 40.800,261.601 40.461,260.678 40.048 C 259.755 39.634,256.300 38.631,253.000 37.818 C 249.700 37.006,246.640 36.181,246.200 35.985 C 244.477 35.216,234.534 33.492,225.139 32.332 C 217.628 31.405,186.594 30.904,181.400 31.626 M167.600 108.578 C 176.165 110.228,183.558 113.903,191.292 120.354 L 193.985 122.600 193.992 201.100 C 194.001 284.886,194.094 280.908,192.162 278.748 C 188.752 274.938,178.651 269.296,172.200 267.600 C 158.508 264.000,145.603 266.762,109.317 281.061 C 102.891 283.593,97.311 285.603,96.917 285.527 C 96.034 285.357,95.568 116.002,96.448 114.942 C 96.794 114.525,98.475 114.399,103.749 114.398 C 110.512 114.396,117.459 113.704,125.800 112.202 C 132.439 111.007,133.376 110.845,139.400 109.840 C 149.149 108.215,150.274 108.104,157.600 108.051 C 162.253 108.017,165.606 108.194,167.600 108.578 M251.800 108.613 C 254.660 108.946,261.396 109.946,266.769 110.835 C 272.142 111.724,277.902 112.612,279.569 112.809 C 281.236 113.007,284.040 113.375,285.800 113.629 C 287.560 113.882,292.600 114.204,297.000 114.344 L 305.000 114.600 305.101 199.912 C 305.185 271.270,305.113 285.258,304.661 285.432 C 304.364 285.546,299.549 283.894,293.960 281.761 C 282.227 277.283,282.791 277.493,275.200 274.786 C 272.010 273.649,268.590 272.491,267.600 272.213 C 266.610 271.935,263.730 271.068,261.200 270.286 C 256.534 268.844,251.911 267.672,247.200 266.738 C 232.978 263.917,217.570 268.264,207.386 277.970 C 206.387 278.922,205.483 279.616,205.378 279.512 C 204.888 279.021,205.207 122.622,205.700 122.161 C 218.791 109.917,231.338 106.230,251.800 108.613 M322.105 116.075 C 324.557 117.821,324.400 111.665,324.400 206.131 C 324.400 298.300,324.441 295.849,322.854 297.437 C 320.323 299.968,323.790 299.789,274.816 299.912 C 227.686 300.030,229.373 299.957,229.846 301.840 C 230.081 302.778,229.043 305.598,228.284 306.080 C 228.018 306.249,215.519 306.391,200.509 306.394 L 173.218 306.400 172.513 305.324 C 172.125 304.731,171.716 303.336,171.604 302.224 L 171.400 300.200 126.800 300.000 C 77.490 299.779,80.580 299.956,78.281 297.224 C 77.687 296.517,77.197 295.457,77.194 294.869 C 76.828 231.426,77.303 118.467,77.939 117.600 C 79.315 115.726,81.142 114.800,83.459 114.800 L 85.600 114.800 85.600 202.320 C 85.600 269.858,85.710 289.950,86.080 290.320 C 87.038 291.278,315.072 290.986,315.586 290.026 C 315.868 289.500,316.000 261.397,316.000 202.054 L 316.000 114.856 316.900 114.716 C 318.308 114.497,320.804 115.149,322.105 116.075 M383.457 170.127 C 383.716 171.267,384.130 172.989,384.377 173.953 C 384.625 174.917,384.760 175.773,384.677 175.856 C 384.595 175.939,384.157 174.610,383.705 172.903 C 382.495 168.340,382.298 167.365,382.661 167.728 C 382.841 167.907,383.199 168.987,383.457 170.127 M386.687 194.695 C 386.595 195.303,386.517 194.900,386.514 193.800 C 386.511 192.700,386.587 192.203,386.682 192.695 C 386.777 193.186,386.779 194.086,386.687 194.695 M386.687 214.695 C 386.595 215.303,386.517 214.900,386.514 213.800 C 386.511 212.700,386.587 212.203,386.682 212.695 C 386.777 213.186,386.779 214.086,386.687 214.695 M384.570 233.100 C 384.423 233.925,384.125 234.780,383.907 235.000 C 383.644 235.265,383.586 235.130,383.736 234.600 C 383.860 234.160,384.080 233.305,384.224 232.700 C 384.614 231.064,384.877 231.369,384.570 233.100 M383.390 237.300 C 383.236 238.235,382.939 239.270,382.730 239.600 C 382.462 240.023,382.422 239.861,382.594 239.053 C 382.729 238.423,382.942 237.388,383.069 236.753 C 383.431 234.943,383.702 235.405,383.390 237.300 " stroke="none" fill="#002245" fill-rule="evenodd"></path></g></svg>